# xmcd
#
# Track frame offsets: 
#        150
#        10725
#        19116
#        28141
#        37848
#        47441
#        56079
#        65705
#        76505
#        84307
#        95927
#        107544
#        115413
#        128061
#        138493
#        149601
#        161014
#        171802
#        181928
#        192753
#        202444
#        212726
#        223154
#        233591
#        245070
#        254902
#        267324
#        278330
#        287902
#        296438
#        305567
#        317911
#
# Disc length: 4373 seconds
#
# Revision: 0
# Processed by: cddbd v1.5.2PL0 Copyright (c) Steve Scherf et al.
# Submitted via: ExactAudioCopy v1.3
#
DISCID=e5111320
DTITLE=Allen Toussaint - The Wild New Orleans Piano and Productions of
DTITLE=Allen Toussaint 1958-1962
DYEAR=2016
DGENRE=R&B
TTITLE0=Whirlaway
TTITLE1=Up the Creek
TTITLE2=Tim Tam
TTITLE3=Me and You
TTITLE4=Bono
TTITLE5=Java
TTITLE6=Happy Times
TTITLE7=Wham Tousan
TTITLE8=Nowhere to Go
TTITLE9=Nashua
TTITLE10=Po' Boy Walk
TTITLE11=Pelican Parade
TTITLE12=Sweetie Pie (Twenty Years Later)
TTITLE13=Chico
TTITLE14=Tiddle Winks
TTITLE15=Heavenly Baby
TTITLE16=Back Home in Indiana
TTITLE17=Naomi
TTITLE18=Moo Moo
TTITLE19=A Blue Mood
TTITLE20=Jessie Hill - Ooh Poo Pah Doo (Part 1)
TTITLE21=Jessie Hill - Ooh Poo Pah Doo (Part 2)
TTITLE22=Aaron Neville - Over You
TTITLE23=Ernie K-Doe - Mother in Law
TTITLE24=Benny Spellman - Fortune Teller
TTITLE25=Ernie K-Doe - A Certain Girl
TTITLE26=Benny Spellman - Lipstick Traces (On a Cigarette)
TTITLE27=Irma Thomas - It's Raining
TTITLE28=Chris Kenner - I Like It Like That (Part 1)
TTITLE29=Chris Kenner - I Like It Like That (Part 2)
TTITLE30=Ernie K-Doe - 'Taint It the Truth
TTITLE31=The Snowmen - It Will Stand
EXTD=
EXTT0=
EXTT1=
EXTT2=
EXTT3=
EXTT4=
EXTT5=
EXTT6=
EXTT7=
EXTT8=
EXTT9=
EXTT10=
EXTT11=
EXTT12=
EXTT13=
EXTT14=
EXTT15=
EXTT16=
EXTT17=
EXTT18=
EXTT19=
EXTT20=
EXTT21=
EXTT22=
EXTT23=
EXTT24=
EXTT25=
EXTT26=
EXTT27=
EXTT28=
EXTT29=
EXTT30=
EXTT31=
PLAYORDER=
